<svg height="2062" width="720" xmlns="http://www.w3.org/2000/svg">
<rect height="2062" fill="#555" width="720"></rect>
<text fill="#7f7" font-family="Courier New" font-size="12" xml:space="preserve">
<tspan x="10" y="26">18 megabytes installed</tspan>
<tspan x="10" y="42"></tspan>
<tspan x="10" y="58">node_modules</tspan>
<tspan x="10" y="74">└─┬ madge@1.6.0 </tspan>
<tspan x="10" y="90">  ├─┬ chalk@1.1.3 </tspan>
<tspan x="10" y="106">  │ ├── ansi-styles@2.2.1 </tspan>
<tspan x="10" y="122">  │ ├── escape-string-regexp@1.0.5 </tspan>
<tspan x="10" y="138">  │ ├─┬ has-ansi@2.0.0 </tspan>
<tspan x="10" y="154">  │ │ └── ansi-regex@2.1.1 </tspan>
<tspan x="10" y="170">  │ ├── strip-ansi@3.0.1 </tspan>
<tspan x="10" y="186">  │ └── supports-color@2.0.0 </tspan>
<tspan x="10" y="202">  ├─┬ commander@2.9.0 </tspan>
<tspan x="10" y="218">  │ └── graceful-readlink@1.0.1 </tspan>
<tspan x="10" y="234">  ├── commondir@1.0.1 </tspan>
<tspan x="10" y="250">  ├─┬ debug@2.6.4 </tspan>
<tspan x="10" y="266">  │ └── ms@0.7.3 </tspan>
<tspan x="10" y="282">  ├─┬ dependency-tree@5.8.0 </tspan>
<tspan x="10" y="298">  │ ├── commander@2.6.0 </tspan>
<tspan x="10" y="314">  │ ├─┬ debug@2.2.0 </tspan>
<tspan x="10" y="330">  │ │ └── ms@0.7.1 </tspan>
<tspan x="10" y="346">  │ ├─┬ filing-cabinet@1.8.0 </tspan>
<tspan x="10" y="362">  │ │ ├── app-module-path@1.1.0 </tspan>
<tspan x="10" y="378">  │ │ ├── commander@2.8.1 </tspan>
<tspan x="10" y="394">  │ │ ├─┬ debug@2.2.0 </tspan>
<tspan x="10" y="410">  │ │ │ └── ms@0.7.1 </tspan>
<tspan x="10" y="426">  │ │ ├─┬ enhanced-resolve@3.0.3 </tspan>
<tspan x="10" y="442">  │ │ │ ├── graceful-fs@4.1.11 </tspan>
<tspan x="10" y="458">  │ │ │ ├─┬ memory-fs@0.4.1 </tspan>
<tspan x="10" y="474">  │ │ │ │ ├─┬ errno@0.1.4 </tspan>
<tspan x="10" y="490">  │ │ │ │ │ └── prr@0.0.0 </tspan>
<tspan x="10" y="506">  │ │ │ │ └─┬ readable-stream@2.2.9 </tspan>
<tspan x="10" y="522">  │ │ │ │   ├── buffer-shims@1.0.0 </tspan>
<tspan x="10" y="538">  │ │ │ │   ├── core-util-is@1.0.2 </tspan>
<tspan x="10" y="554">  │ │ │ │   ├── inherits@2.0.3 </tspan>
<tspan x="10" y="570">  │ │ │ │   ├── isarray@1.0.0 </tspan>
<tspan x="10" y="586">  │ │ │ │   ├── process-nextick-args@1.0.7 </tspan>
<tspan x="10" y="602">  │ │ │ │   ├── string_decoder@1.0.0 </tspan>
<tspan x="10" y="618">  │ │ │ │   └── util-deprecate@1.0.2 </tspan>
<tspan x="10" y="634">  │ │ │ └── tapable@0.2.6 </tspan>
<tspan x="10" y="650">  │ │ ├── is-relative-path@1.0.1 </tspan>
<tspan x="10" y="666">  │ │ ├─┬ module-definition@2.2.4 </tspan>
<tspan x="10" y="682">  │ │ │ └── ast-module-types@2.3.2 </tspan>
<tspan x="10" y="698">  │ │ ├─┬ module-lookup-amd@4.0.3 </tspan>
<tspan x="10" y="714">  │ │ │ ├─┬ debug@2.2.0 </tspan>
<tspan x="10" y="730">  │ │ │ │ └── ms@0.7.1 </tspan>
<tspan x="10" y="746">  │ │ │ ├── file-exists@1.0.0 </tspan>
<tspan x="10" y="762">  │ │ │ ├─┬ find@0.2.6 </tspan>
<tspan x="10" y="778">  │ │ │ │ └── traverse-chain@0.1.0 </tspan>
<tspan x="10" y="794">  │ │ │ ├── requirejs@2.2.0 </tspan>
<tspan x="10" y="810">  │ │ │ └─┬ requirejs-config-file@2.0.1 </tspan>
<tspan x="10" y="826">  │ │ │   ├── esprima@1.0.4 </tspan>
<tspan x="10" y="842">  │ │ │   ├─┬ fs-extra@0.6.4 </tspan>
<tspan x="10" y="858">  │ │ │   │ ├── jsonfile@1.0.1 </tspan>
<tspan x="10" y="874">  │ │ │   │ ├── mkdirp@0.3.5 </tspan>
<tspan x="10" y="890">  │ │ │   │ ├── ncp@0.4.2 </tspan>
<tspan x="10" y="906">  │ │ │   │ └── rimraf@2.2.8 </tspan>
<tspan x="10" y="922">  │ │ │   └── stringify-object@0.1.8 </tspan>
<tspan x="10" y="938">  │ │ ├── resolve@1.1.7 </tspan>
<tspan x="10" y="954">  │ │ ├── resolve-dependency-path@1.0.2 </tspan>
<tspan x="10" y="970">  │ │ ├─┬ sass-lookup@1.0.2 </tspan>
<tspan x="10" y="986">  │ │ │ └── commander@2.8.1 </tspan>
<tspan x="10" y="1002">  │ │ └─┬ stylus-lookup@1.0.1 </tspan>
<tspan x="10" y="1018">  │ │   ├── commander@2.8.1 </tspan>
<tspan x="10" y="1034">  │ │   └─┬ debug@2.2.0 </tspan>
<tspan x="10" y="1050">  │ │     └── ms@0.7.1 </tspan>
<tspan x="10" y="1066">  │ └─┬ precinct@3.6.0 </tspan>
<tspan x="10" y="1082">  │   ├─┬ detective-amd@2.4.0 </tspan>
<tspan x="10" y="1098">  │   │ ├─┬ escodegen@1.8.1 </tspan>
<tspan x="10" y="1114">  │   │ │ ├── esprima@2.7.3 </tspan>
<tspan x="10" y="1130">  │   │ │ ├── estraverse@1.9.3 </tspan>
<tspan x="10" y="1146">  │   │ │ ├── esutils@2.0.2 </tspan>
<tspan x="10" y="1162">  │   │ │ ├─┬ optionator@0.8.2 </tspan>
<tspan x="10" y="1178">  │   │ │ │ ├── deep-is@0.1.3 </tspan>
<tspan x="10" y="1194">  │   │ │ │ ├── fast-levenshtein@2.0.6 </tspan>
<tspan x="10" y="1210">  │   │ │ │ ├── levn@0.3.0 </tspan>
<tspan x="10" y="1226">  │   │ │ │ ├── prelude-ls@1.1.2 </tspan>
<tspan x="10" y="1242">  │   │ │ │ ├── type-check@0.3.2 </tspan>
<tspan x="10" y="1258">  │   │ │ │ └── wordwrap@1.0.0 </tspan>
<tspan x="10" y="1274">  │   │ │ └─┬ source-map@0.2.0 </tspan>
<tspan x="10" y="1290">  │   │ │   └── amdefine@1.0.1 </tspan>
<tspan x="10" y="1306">  │   │ └── get-amd-module-type@2.0.5 </tspan>
<tspan x="10" y="1322">  │   ├── detective-cjs@2.0.0 </tspan>
<tspan x="10" y="1338">  │   ├── detective-es6@1.1.6 </tspan>
<tspan x="10" y="1354">  │   ├─┬ detective-less@1.0.0 </tspan>
<tspan x="10" y="1370">  │   │ ├─┬ debug@2.2.0 </tspan>
<tspan x="10" y="1386">  │   │ │ └── ms@0.7.1 </tspan>
<tspan x="10" y="1402">  │   │ └─┬ gonzales-pe@3.4.7 </tspan>
<tspan x="10" y="1418">  │   │   └── minimist@1.1.3 </tspan>
<tspan x="10" y="1434">  │   ├─┬ detective-sass@2.0.0 </tspan>
<tspan x="10" y="1450">  │   │ └─┬ debug@2.2.0 </tspan>
<tspan x="10" y="1466">  │   │   └── ms@0.7.1 </tspan>
<tspan x="10" y="1482">  │   ├─┬ detective-scss@1.0.0 </tspan>
<tspan x="10" y="1498">  │   │ └─┬ debug@2.2.0 </tspan>
<tspan x="10" y="1514">  │   │   └── ms@0.7.1 </tspan>
<tspan x="10" y="1530">  │   ├── detective-stylus@1.0.0 </tspan>
<tspan x="10" y="1546">  │   └─┬ node-source-walk@3.2.0 </tspan>
<tspan x="10" y="1562">  │     └─┬ babylon@6.8.4 </tspan>
<tspan x="10" y="1578">  │       └─┬ babel-runtime@6.23.0 </tspan>
<tspan x="10" y="1594">  │         ├── core-js@2.4.1 </tspan>
<tspan x="10" y="1610">  │         └── regenerator-runtime@0.10.3 </tspan>
<tspan x="10" y="1626">  ├─┬ graphviz@0.0.8 </tspan>
<tspan x="10" y="1642">  │ └── temp@0.4.0 </tspan>
<tspan x="10" y="1658">  ├─┬ mz@2.6.0 </tspan>
<tspan x="10" y="1674">  │ ├── any-promise@1.3.0 </tspan>
<tspan x="10" y="1690">  │ ├── object-assign@4.0.1 </tspan>
<tspan x="10" y="1706">  │ └─┬ thenify-all@1.6.0 </tspan>
<tspan x="10" y="1722">  │   └── thenify@3.2.1 </tspan>
<tspan x="10" y="1738">  ├─┬ ora@1.1.0 </tspan>
<tspan x="10" y="1754">  │ ├─┬ cli-cursor@2.1.0 </tspan>
<tspan x="10" y="1770">  │ │ └─┬ restore-cursor@2.0.0 </tspan>
<tspan x="10" y="1786">  │ │   ├─┬ onetime@2.0.1 </tspan>
<tspan x="10" y="1802">  │ │   │ └── mimic-fn@1.1.0 </tspan>
<tspan x="10" y="1818">  │ │   └── signal-exit@3.0.2 </tspan>
<tspan x="10" y="1834">  │ ├── cli-spinners@1.0.0 </tspan>
<tspan x="10" y="1850">  │ └── log-symbols@1.0.2 </tspan>
<tspan x="10" y="1866">  ├── pluralize@3.1.0 </tspan>
<tspan x="10" y="1882">  ├─┬ pretty-ms@2.1.0 </tspan>
<tspan x="10" y="1898">  │ ├─┬ is-finite@1.0.2 </tspan>
<tspan x="10" y="1914">  │ │ └── number-is-nan@1.0.1 </tspan>
<tspan x="10" y="1930">  │ ├── parse-ms@1.0.1 </tspan>
<tspan x="10" y="1946">  │ └── plur@1.0.0 </tspan>
<tspan x="10" y="1962">  ├─┬ rc@1.2.1 </tspan>
<tspan x="10" y="1978">  │ ├── deep-extend@0.4.1 </tspan>
<tspan x="10" y="1994">  │ ├── ini@1.3.4 </tspan>
<tspan x="10" y="2010">  │ ├── minimist@1.2.0 </tspan>
<tspan x="10" y="2026">  │ └── strip-json-comments@2.0.1 </tspan>
<tspan x="10" y="2042">  └── walkdir@0.0.11</tspan>
</text>
</svg>
